<?xml version="1.0" encoding="UTF-8" standalone="no"?>
<svg
   height="24px"
   viewBox="0 -960 960 960"
   width="24px"
   fill="#e3e3e3"
   version="1.1"
   id="svg1"
   sodipodi:docname="policy_alert_24dp.svg"
   inkscape:version="1.4.2 (ebf0e940, 2025-05-08)"
   xmlns:inkscape="http://www.inkscape.org/namespaces/inkscape"
   xmlns:sodipodi="http://sodipodi.sourceforge.net/DTD/sodipodi-0.dtd"
   xmlns="http://www.w3.org/2000/svg"
   xmlns:svg="http://www.w3.org/2000/svg">
  <defs
     id="defs1" />
  <sodipodi:namedview
     id="namedview1"
     pagecolor="#ffffff"
     bordercolor="#000000"
     borderopacity="0.25"
     inkscape:showpageshadow="2"
     inkscape:pageopacity="0.0"
     inkscape:pagecheckerboard="0"
     inkscape:deskcolor="#d1d1d1"
     inkscape:zoom="8.5782291"
     inkscape:cx="1.9234739"
     inkscape:cy="20.750203"
     inkscape:window-width="1440"
     inkscape:window-height="847"
     inkscape:window-x="0"
     inkscape:window-y="25"
     inkscape:window-maximized="1"
     inkscape:current-layer="svg1" />
  <path
     d="M480-80q-139-35-229.5-159.5T160-516v-244l320-120 320 120v200h-80v-145l-240-90-240 90v189q0 121 68 220t172 132q26-8 49.5-20.5T576-214l56 56q-33 27-71.5 47T480-80Zm331.5-11.5Q800-103 800-120t11.5-28.5Q823-160 840-160t28.5 11.5Q880-137 880-120t-11.5 28.5Q857-80 840-80t-28.5-11.5ZM800-240v-240h80v240h-80ZM480-480Zm56.5 56.5Q560-447 560-480t-23.5-56.5Q513-560 480-560t-56.5 23.5Q400-513 400-480t23.5 56.5Q447-400 480-400t56.5-23.5ZM480-320q-66 0-113-47t-47-113q0-66 47-113t113-47q66 0 113 47t47 113q0 22-5.5 42.5T618-398l119 118-57 57-120-119q-18 11-38.5 16.5T480-320Z"
     id="path1"
     style="fill:#ff0000" />
</svg>
